<?xml version="1.0" encoding="UTF-8" standalone="no"?>
<!DOCTYPE svg PUBLIC "-//W3C//DTD SVG 1.1//EN" "http://www.w3.org/Graphics/SVG/1.1/DTD/svg11.dtd">
<svg xmlns="http://www.w3.org/2000/svg" version="1.1" viewBox="0.00 0.00 1280.00 1280.00">
<g stroke-width="2.00" fill="none" stroke-linecap="butt">
<path stroke="#00643e" vector-effect="non-scaling-stroke" d="
  M 617.46 216.00
  Q 616.26 216.46 616.26 217.31
  Q 616.20 280.41 616.24 343.50
  Q 616.25 365.59 616.52 374.67
  Q 616.60 377.07 615.79 379.19
  C 614.37 382.91 612.84 386.29 611.98 390.16
  Q 610.77 395.60 609.47 401.01
  C 608.55 404.82 606.58 407.87 604.71 411.26
  Q 603.85 412.80 605.97 413.64
  Q 607.18 414.12 605.94 414.44
  Q 605.00 414.68 604.69 415.52
  Q 604.58 415.84 604.87 416.01
  L 605.29 416.25"
/>
<path stroke="#79ab37" vector-effect="non-scaling-stroke" d="
  M 557.50 635.12
  Q 557.92 631.95 558.70 629.23
  Q 570.90 586.69 582.68 545.15
  A 1.57 1.57 0.0 0 0 580.95 543.17
  Q 574.87 544.05 569.66 545.14
  C 567.85 545.52 567.11 546.53 565.25 546.99
  Q 561.94 547.81 558.62 548.51
  C 556.34 549.00 553.93 550.54 551.09 550.53
  Q 550.61 550.53 550.17 550.73
  C 548.76 551.37 548.23 552.06 546.68 552.42
  Q 541.18 553.71 535.82 555.50
  C 533.12 556.40 530.05 556.74 527.15 557.63
  Q 521.89 559.22 520.73 559.50
  Q 491.52 566.41 462.69 574.76
  C 461.01 575.24 459.30 575.27 457.53 575.74
  Q 457.04 575.88 456.59 575.64
  Q 455.31 574.95 454.85 573.37"
/>
<path stroke="#337f39" vector-effect="non-scaling-stroke" d="
  M 496.20 808.00
  Q 494.33 813.89 495.06 820.09
  Q 495.16 820.88 494.37 820.76
  Q 493.95 820.69 494.01 821.08
  Q 494.07 821.44 494.43 821.48
  L 496.25 821.71"
/>
<path stroke="#79ab37" vector-effect="non-scaling-stroke" d="
  M 549.00 808.04
  L 550.97 808.53
  Q 551.40 808.63 551.02 808.86
  L 550.66 809.07
  Q 550.23 809.32 550.24 809.82
  Q 550.34 815.24 550.07 820.72
  Q 550.06 821.03 550.47 821.02
  Q 551.61 821.00 550.49 821.21
  Q 550.08 821.28 550.00 821.71"
/>
<path stroke="#469a42" vector-effect="non-scaling-stroke" d="
  M 737.00 808.04
  Q 737.98 814.51 737.53 821.02
  Q 737.51 821.25 737.74 821.25
  Q 737.88 821.25 738.04 821.23
  Q 738.29 821.20 738.10 821.37
  L 737.75 821.71"
/>
</g>
<path fill="#005937" d="
  M 617.46 216.00
  Q 616.26 216.46 616.26 217.31
  Q 616.20 280.41 616.24 343.50
  Q 616.25 365.59 616.52 374.67
  Q 616.60 377.07 615.79 379.19
  C 614.37 382.91 612.84 386.29 611.98 390.16
  Q 610.77 395.60 609.47 401.01
  C 608.55 404.82 606.58 407.87 604.71 411.26
  Q 603.85 412.80 605.97 413.64
  Q 607.18 414.12 605.94 414.44
  Q 605.00 414.68 604.69 415.52
  Q 604.58 415.84 604.87 416.01
  L 605.29 416.25
  L 336.02 634.46
  Q 334.53 635.67 335.60 634.07
  L 615.30 214.30
  Q 615.62 213.81 616.11 214.13
  Q 617.10 214.76 617.46 216.00
  Z"
/>
<path fill="#006e44" d="
  M 617.46 216.00
  L 895.98 634.26
  Q 896.47 635.00 895.59 635.00
  L 767.70 635.00
  A 0.78 0.76 72.9 0 1 767.06 634.65
  L 616.20 408.20
  Q 615.86 407.70 615.39 408.08
  L 605.29 416.25
  L 604.87 416.01
  Q 604.58 415.84 604.69 415.52
  Q 605.00 414.68 605.94 414.44
  Q 607.18 414.12 605.97 413.64
  Q 603.85 412.80 604.71 411.26
  C 606.58 407.87 608.55 404.82 609.47 401.01
  Q 610.77 395.60 611.98 390.16
  C 612.84 386.29 614.37 382.91 615.79 379.19
  Q 616.60 377.07 616.52 374.67
  Q 616.25 365.59 616.24 343.50
  Q 616.20 280.41 616.26 217.31
  Q 616.26 216.46 617.46 216.00
  Z"
/>
<path fill="#8bc53f" d="
  M 557.50 635.12
  Q 557.92 631.95 558.70 629.23
  Q 570.90 586.69 582.68 545.15
  A 1.57 1.57 0.0 0 0 580.95 543.17
  Q 574.87 544.05 569.66 545.14
  C 567.85 545.52 567.11 546.53 565.25 546.99
  Q 561.94 547.81 558.62 548.51
  C 556.34 549.00 553.93 550.54 551.09 550.53
  Q 550.61 550.53 550.17 550.73
  C 548.76 551.37 548.23 552.06 546.68 552.42
  Q 541.18 553.71 535.82 555.50
  C 533.12 556.40 530.05 556.74 527.15 557.63
  Q 521.89 559.22 520.73 559.50
  Q 491.52 566.41 462.69 574.76
  C 461.01 575.24 459.30 575.27 457.53 575.74
  Q 457.04 575.88 456.59 575.64
  Q 455.31 574.95 454.85 573.37
  L 609.43 448.27
  A 0.76 0.76 0.0 0 1 610.54 448.44
  L 734.53 634.26
  Q 735.04 635.03 734.12 635.03
  L 557.50 635.12
  Z"
/>
<path fill="#66902e" d="
  M 557.50 635.12
  L 379.74 635.22
  Q 378.94 635.22 379.56 634.72
  L 454.85 573.37
  Q 455.31 574.95 456.59 575.64
  Q 457.04 575.88 457.53 575.74
  C 459.30 575.27 461.01 575.24 462.69 574.76
  Q 491.52 566.41 520.73 559.50
  Q 521.89 559.22 527.15 557.63
  C 530.05 556.74 533.12 556.40 535.82 555.50
  Q 541.18 553.71 546.68 552.42
  C 548.23 552.06 548.76 551.37 550.17 550.73
  Q 550.61 550.53 551.09 550.53
  C 553.93 550.54 556.34 549.00 558.62 548.51
  Q 561.94 547.81 565.25 546.99
  C 567.11 546.53 567.85 545.52 569.66 545.14
  Q 574.87 544.05 580.95 543.17
  A 1.57 1.57 0.0 0 1 582.68 545.15
  Q 570.90 586.69 558.70 629.23
  Q 557.92 631.95 557.50 635.12
  Z"
/>
<path fill="#006e44" d="
  M 784.24 687.98
  C 780.11 691.73 781.40 696.60 786.05 699.02
  Q 790.94 701.56 796.42 702.67
  C 817.64 706.97 849.61 710.99 860.99 732.64
  C 868.05 746.06 866.62 763.98 858.22 776.70
  C 846.87 793.87 824.27 801.49 804.31 802.68
  C 778.98 804.20 753.26 799.89 730.21 788.29
  Q 728.85 787.60 729.47 786.22
  L 745.20 750.76
  Q 745.40 750.31 745.83 750.55
  C 764.11 760.67 786.89 766.56 807.74 763.04
  C 813.61 762.05 817.56 756.61 812.99 751.24
  C 811.17 749.11 805.87 747.37 802.43 746.52
  C 772.69 739.22 730.28 735.66 731.35 694.29
  Q 731.84 675.41 746.19 662.42
  C 773.55 637.65 827.98 642.27 858.20 657.84
  Q 859.05 658.28 858.68 659.16
  L 843.97 694.28
  A 0.83 0.83 0.0 0 1 842.83 694.69
  Q 824.93 685.49 804.94 684.12
  C 799.26 683.73 788.75 683.90 784.24 687.98
  Z"
/>
<path fill="#006e44" d="
  M 460.55 688.30
  Q 442.52 692.26 426.41 701.25
  A 0.65 0.65 0.0 0 1 425.50 700.96
  Q 419.66 688.45 413.85 675.96
  C 412.08 672.17 412.72 667.61 412.76 663.55
  A 0.90 0.88 77.4 0 1 413.24 662.77
  C 458.98 638.65 518.70 639.09 563.81 664.69
  Q 564.77 665.24 564.30 666.24
  L 548.16 700.90
  A 0.71 0.71 0.0 0 1 547.18 701.22
  Q 531.00 692.22 512.90 688.24
  A 0.54 0.54 0.0 0 0 512.25 688.77
  L 512.55 798.97
  Q 512.56 800.00 511.53 800.00
  L 462.00 800.00
  A 0.75 0.75 0.0 0 1 461.25 799.25
  L 461.25 688.87
  Q 461.25 688.14 460.55 688.30
  Z"
/>
<path fill="#8bc53f" d="
  M 672.44 649.00
  L 727.39 649.00
  A 0.30 0.30 0.0 0 1 727.61 649.50
  L 667.54 715.33
  A 0.30 0.30 0.0 0 0 667.52 715.71
  L 730.64 799.52
  A 0.30 0.30 0.0 0 1 730.40 800.00
  L 671.96 800.00
  A 0.30 0.30 0.0 0 1 671.72 799.88
  L 634.20 750.35
  A 0.30 0.30 0.0 0 0 633.74 750.33
  L 622.58 762.69
  A 0.30 0.30 0.0 0 0 622.50 762.90
  L 622.50 799.70
  A 0.30 0.30 0.0 0 1 622.20 800.00
  L 572.55 800.00
  A 0.30 0.30 0.0 0 1 572.25 799.70
  L 572.25 649.30
  A 0.30 0.30 0.0 0 1 572.55 649.00
  L 622.20 649.00
  A 0.30 0.30 0.0 0 1 622.50 649.30
  L 622.50 703.01
  A 0.30 0.30 0.0 0 0 623.02 703.22
  L 672.22 649.10
  A 0.30 0.30 0.0 0 1 672.44 649.00
  Z"
/>
<path fill="#006e44" d="
  M 496.20 808.00
  Q 494.33 813.89 495.06 820.09
  Q 495.16 820.88 494.37 820.76
  Q 493.95 820.69 494.01 821.08
  Q 494.07 821.44 494.43 821.48
  L 496.25 821.71
  L 363.35 821.74
  A 0.61 0.60 89.5 0 1 362.75 821.14
  L 362.67 808.49
  A 0.48 0.47 -0.6 0 1 363.15 808.01
  L 496.20 808.00
  Z"
/>
<path fill="#66902e" d="
  M 496.20 808.00
  L 549.00 808.04
  L 550.97 808.53
  Q 551.40 808.63 551.02 808.86
  L 550.66 809.07
  Q 550.23 809.32 550.24 809.82
  Q 550.34 815.24 550.07 820.72
  Q 550.06 821.03 550.47 821.02
  Q 551.61 821.00 550.49 821.21
  Q 550.08 821.28 550.00 821.71
  L 496.25 821.71
  L 494.43 821.48
  Q 494.07 821.44 494.01 821.08
  Q 493.95 820.69 494.37 820.76
  Q 495.16 820.88 495.06 820.09
  Q 494.33 813.89 496.20 808.00
  Z"
/>
<path fill="#8bc53f" d="
  M 549.00 808.04
  L 737.00 808.04
  Q 737.98 814.51 737.53 821.02
  Q 737.51 821.25 737.74 821.25
  Q 737.88 821.25 738.04 821.23
  Q 738.29 821.20 738.10 821.37
  L 737.75 821.71
  L 550.00 821.71
  Q 550.08 821.28 550.49 821.21
  Q 551.61 821.00 550.47 821.02
  Q 550.06 821.03 550.07 820.72
  Q 550.34 815.24 550.24 809.82
  Q 550.23 809.32 550.66 809.07
  L 551.02 808.86
  Q 551.40 808.63 550.97 808.53
  L 549.00 808.04
  Z"
/>
<path fill="#006e44" d="
  M 737.00 808.04
  L 917.78 808.01
  A 0.47 0.47 0.0 0 1 918.25 808.48
  L 918.25 821.01
  A 0.73 0.72 90.0 0 1 917.53 821.74
  L 737.75 821.71
  L 738.10 821.37
  Q 738.29 821.20 738.04 821.23
  Q 737.88 821.25 737.74 821.25
  Q 737.51 821.25 737.53 821.02
  Q 737.98 814.51 737.00 808.04
  Z"
/>
<ellipse fill="#8bc53f" cx="0.00" cy="0.00" transform="translate(522.11,828.90) rotate(-2.9)" rx="5.63" ry="4.98"/>
<ellipse fill="#8bc53f" cx="0.00" cy="0.00" transform="translate(762.30,828.90) rotate(-1.8)" rx="5.60" ry="4.97"/>
<path fill="#8bc53f" d="
  M 490.31 849.76
  L 502.37 838.43
  Q 502.83 838.00 503.46 838.00
  L 513.04 838.00
  Q 513.90 838.00 513.29 838.60
  L 501.06 850.81
  Q 500.74 851.13 501.02 851.48
  L 514.46 868.30
  A 0.41 0.41 0.0 0 1 514.15 868.97
  Q 509.48 869.06 504.81 868.95
  C 503.17 868.91 495.97 859.26 494.45 857.49
  Q 493.94 856.89 493.39 857.45
  L 490.13 860.72
  Q 489.75 861.10 489.75 861.64
  L 489.75 868.38
  Q 489.75 869.01 489.12 869.01
  L 481.20 868.97
  Q 480.50 868.97 480.50 868.27
  L 480.50 826.62
  Q 480.50 826.00 481.13 826.00
  L 488.97 826.00
  Q 489.69 826.00 489.70 826.72
  L 489.77 849.53
  A 0.32 0.32 0.0 0 0 490.31 849.76
  Z"
/>
<path fill="#8bc53f" d="
  M 419.77 835.35
  Q 414.35 836.46 409.39 838.91
  Q 408.62 839.29 408.33 838.49
  L 406.19 832.64
  A 0.90 0.90 0.0 0 1 406.64 831.52
  Q 425.16 822.38 443.46 831.72
  A 0.81 0.80 25.7 0 1 443.83 832.76
  L 441.12 838.71
  A 0.66 0.65 -62.7 0 1 440.20 839.01
  Q 435.58 836.32 430.28 835.47
  A 0.47 0.46 -85.3 0 0 429.74 835.93
  L 429.76 868.37
  Q 429.76 869.00 429.13 869.00
  L 420.89 869.00
  A 0.67 0.67 0.0 0 1 420.22 868.33
  L 420.26 835.75
  A 0.41 0.41 0.0 0 0 419.77 835.35
  Z"
/>
<path fill="#8bc53f" d="
  M 632.88 842.10
  C 635.79 844.28 642.35 845.20 645.95 846.18
  C 655.24 848.74 658.41 859.86 650.68 866.16
  C 643.25 872.22 629.83 870.07 621.96 865.92
  Q 621.05 865.44 621.45 864.50
  L 624.01 858.47
  Q 624.21 858.01 624.63 858.27
  Q 631.82 862.77 640.23 862.18
  C 644.79 861.86 648.49 856.17 642.69 854.35
  C 634.07 851.64 616.47 849.03 623.20 834.75
  C 628.08 824.40 644.66 826.10 652.80 830.30
  Q 653.31 830.56 653.10 831.09
  L 650.51 837.44
  Q 650.24 838.10 649.63 837.73
  Q 642.06 833.06 634.53 835.22
  C 631.58 836.07 630.10 840.01 632.88 842.10
  Z"
/>
<path fill="#8bc53f" d="
  M 451.46 858.60
  C 454.57 864.04 462.46 863.35 466.72 859.98
  A 0.73 0.72 -40.4 0 1 467.70 860.05
  L 471.72 864.48
  Q 472.18 865.00 471.64 865.44
  C 460.57 874.28 441.43 869.55 441.29 854.07
  C 441.09 832.16 473.18 830.95 474.10 852.59
  Q 474.13 853.21 473.52 853.33
  L 451.91 857.61
  A 0.68 0.67 69.7 0 0 451.46 858.60
  Z
  M 450.80 852.32
  L 464.78 849.52
  A 0.64 0.64 0.0 0 0 465.22 848.58
  C 461.09 841.01 451.10 842.93 450.18 851.76
  Q 450.10 852.46 450.80 852.32
  Z"
/>
<path fill="#8bc53f" d="
  M 546.03 840.27
  C 552.16 835.87 561.95 835.43 566.32 842.14
  C 570.02 847.83 568.94 861.49 568.58 868.45
  Q 568.55 869.00 568.00 869.00
  L 560.05 869.00
  Q 559.54 869.00 559.53 868.48
  Q 559.44 860.08 559.50 851.75
  C 559.54 845.23 552.89 842.91 548.39 846.64
  C 544.32 850.01 545.72 863.19 545.68 868.33
  Q 545.68 869.00 545.01 869.00
  L 537.10 868.96
  Q 536.50 868.96 536.50 868.35
  L 536.50 838.50
  Q 536.50 838.00 537.00 838.00
  L 544.86 838.00
  Q 545.75 838.00 545.53 838.87
  L 545.29 839.76
  Q 544.96 841.03 546.03 840.27
  Z"
/>
<path fill="#8bc53f" d="
  M 593.02 860.34
  A 2.17 2.16 7.2 0 0 591.26 858.08
  Q 586.14 857.11 581.74 856.11
  C 571.29 853.75 572.49 840.63 582.03 838.00
  Q 591.14 835.49 600.37 839.38
  A 0.64 0.63 23.2 0 1 600.71 840.22
  L 598.31 845.59
  A 0.89 0.89 0.0 0 1 597.08 846.01
  C 594.09 844.38 582.76 841.42 583.21 847.86
  Q 583.25 848.39 583.74 848.59
  C 588.20 850.37 593.03 850.36 597.21 852.38
  C 602.88 855.10 603.40 861.90 599.23 866.22
  C 593.70 871.96 580.45 869.99 574.07 866.89
  Q 573.52 866.62 573.78 866.06
  L 576.34 860.54
  Q 576.58 860.01 577.10 860.29
  Q 582.95 863.41 589.47 862.95
  Q 592.87 862.71 593.02 860.34
  Z"
/>
<path fill="#8bc53f" d="
  M 667.56 858.55
  C 670.33 864.21 678.78 863.09 682.88 859.97
  A 0.64 0.63 49.8 0 1 683.74 860.05
  L 687.66 864.32
  A 0.93 0.92 -40.5 0 1 687.55 865.67
  C 681.79 870.20 674.63 871.04 667.77 868.51
  C 650.32 862.05 656.00 835.54 675.67 837.16
  Q 688.56 838.23 690.38 852.24
  A 1.04 1.04 0.0 0 1 689.55 853.39
  L 668.02 857.61
  A 0.66 0.65 71.5 0 0 667.56 858.55
  Z
  M 666.65 852.42
  L 681.31 849.44
  A 0.15 0.15 0.0 0 0 681.42 849.26
  L 681.42 849.24
  A 7.57 6.83 -11.5 0 0 672.64 844.06
  L 672.52 844.08
  A 7.57 6.83 -11.5 0 0 666.47 852.28
  L 666.47 852.30
  A 0.15 0.15 0.0 0 0 666.65 852.42
  Z"
/>
<path fill="#8bc53f" d="
  M 797.61 848.40
  C 794.77 844.48 789.52 842.95 785.78 846.17
  C 776.39 854.27 789.42 870.20 797.55 858.54
  Q 797.91 858.03 798.45 858.33
  L 803.80 861.33
  Q 805.50 862.28 804.20 863.74
  C 795.25 873.82 776.63 871.28 773.93 857.07
  C 770.33 838.12 794.77 829.62 804.79 844.29
  A 0.59 0.59 0.0 0 1 804.60 845.14
  L 798.55 848.60
  Q 797.99 848.92 797.61 848.40
  Z"
/>
<path fill="#8bc53f" d="
  M 817.58 858.40
  C 820.87 863.93 828.39 863.60 832.95 859.98
  Q 833.46 859.58 833.90 860.05
  L 838.01 864.47
  Q 838.46 864.96 837.94 865.39
  Q 830.02 871.84 820.15 869.31
  C 802.97 864.92 803.41 840.39 820.59 837.41
  C 831.34 835.54 839.39 841.33 840.44 852.44
  A 0.84 0.83 82.0 0 1 839.77 853.34
  L 817.92 857.64
  A 0.51 0.50 -21.2 0 0 817.58 858.40
  Z
  M 817.24 852.53
  C 819.19 851.18 828.19 850.07 831.05 849.47
  A 0.60 0.60 0.0 0 0 831.46 848.59
  C 827.03 840.63 817.54 843.22 816.26 851.92
  A 0.63 0.63 0.0 0 0 817.24 852.53
  Z"
/>
<path fill="#8bc53f" d="
  M 862.24 860.53
  A 2.11 2.11 0.0 0 0 860.56 858.07
  Q 855.44 857.09 850.77 856.00
  C 840.88 853.70 841.53 841.43 850.30 838.27
  Q 859.50 834.96 869.47 839.48
  Q 870.00 839.72 869.77 840.25
  L 867.40 845.88
  Q 867.20 846.35 866.75 846.11
  C 863.67 844.48 855.75 842.24 852.88 845.64
  C 849.46 849.66 862.00 851.03 863.80 851.45
  C 870.80 853.10 873.82 860.81 868.55 866.03
  C 862.76 871.77 850.29 870.24 843.39 867.00
  A 0.73 0.72 25.1 0 1 843.04 866.05
  L 845.45 860.63
  A 0.71 0.70 -63.1 0 1 846.44 860.30
  C 849.27 861.89 861.27 865.63 862.24 860.53
  Z"
/>
<path fill="#8bc53f" d="
  M 705.30 840.93
  A 0.41 0.40 72.4 0 0 705.97 841.28
  Q 710.05 837.59 715.62 837.20
  Q 716.25 837.16 716.25 837.79
  L 716.25 844.73
  A 0.56 0.56 0.0 0 1 715.65 845.29
  C 702.78 844.40 705.56 859.12 705.90 868.33
  Q 705.93 869.04 705.22 869.03
  L 697.34 868.93
  Q 696.76 868.92 696.76 868.34
  L 696.73 838.63
  Q 696.73 838.00 697.37 838.00
  L 705.03 838.01
  Q 705.62 838.01 705.55 838.59
  L 705.30 840.93
  Z"
/>
<rect fill="#8bc53f" x="517.50" y="838.00" width="9.24" height="30.98" rx="0.69"/>
<path fill="#8bc53f" d="
  M 736.41 858.31
  L 744.96 838.19
  A 0.31 0.31 0.0 0 1 745.25 838.00
  L 753.36 838.00
  A 0.31 0.31 0.0 0 1 753.65 838.43
  L 740.70 868.81
  A 0.31 0.31 0.0 0 1 740.41 869.00
  L 731.38 868.96
  A 0.31 0.31 0.0 0 1 731.10 868.77
  L 718.29 838.44
  A 0.31 0.31 0.0 0 1 718.58 838.01
  L 727.28 838.00
  A 0.31 0.31 0.0 0 1 727.57 838.19
  L 735.84 858.30
  A 0.31 0.31 0.0 0 0 736.41 858.31
  Z"
/>
<rect fill="#8bc53f" x="757.75" y="838.00" width="9.02" height="30.98" rx="0.39"/>
<path fill="#006e44" d="
  M 494.47 885.10
  Q 489.90 881.76 493.57 876.44
  C 496.06 872.82 500.55 875.44 500.09 879.01
  Q 498.87 888.26 491.91 894.41
  A 1.40 1.38 22.7 0 1 491.04 894.76
  Q 489.86 894.81 489.57 894.06
  Q 489.41 893.66 489.66 893.31
  L 494.64 886.06
  Q 495.02 885.50 494.47 885.10
  Z"
/>
<path fill="#006e44" d="
  M 395.66 922.62
  C 404.64 916.27 411.53 909.80 418.38 900.37
  Q 423.46 893.38 431.21 882.98
  C 439.45 871.92 444.12 880.30 439.41 889.37
  Q 432.28 903.09 424.99 916.73
  C 422.72 920.98 424.04 925.67 429.30 925.53
  C 437.09 925.34 444.67 917.19 448.13 910.85
  Q 448.37 910.42 448.32 909.92
  C 447.33 900.72 447.79 885.88 454.07 878.34
  C 457.03 874.79 463.45 874.43 463.81 880.27
  C 464.58 892.98 459.11 903.26 452.43 913.54
  Q 452.16 913.95 452.31 914.42
  L 454.53 921.36
  A 1.21 1.20 -23.3 0 1 453.96 922.78
  C 451.78 923.97 450.41 919.34 449.98 918.00
  A 0.67 0.66 57.5 0 0 448.86 917.75
  C 442.19 924.98 427.29 934.84 419.29 924.24
  C 416.24 920.20 418.99 913.84 421.38 909.32
  Q 428.07 896.67 435.18 884.25
  Q 435.34 883.97 435.02 883.99
  Q 434.86 884.00 434.72 884.00
  Q 434.47 884.00 434.32 884.21
  Q 427.93 893.09 421.36 901.84
  C 416.98 907.66 395.57 930.74 388.06 928.57
  A 1.99 1.99 0.0 0 1 387.02 925.47
  Q 393.73 916.52 399.77 907.54
  C 406.54 897.49 411.59 877.83 391.31 879.00
  C 375.79 879.90 370.25 895.56 376.08 908.17
  C 377.75 911.77 380.71 915.23 383.51 918.27
  Q 384.85 919.73 382.95 920.30
  C 382.01 920.58 380.92 920.22 380.17 919.52
  C 372.60 912.41 364.56 898.44 369.42 888.39
  C 375.96 874.88 395.37 872.50 407.04 879.94
  C 424.33 890.96 404.27 913.56 395.52 922.18
  Q 395.47 922.23 395.47 922.31
  Q 395.49 922.46 395.52 922.57
  Q 395.55 922.70 395.66 922.62
  Z
  M 451.24 904.46
  Q 451.26 905.94 452.07 904.70
  C 456.22 898.36 460.82 887.27 459.51 879.38
  A 0.75 0.75 0.0 0 0 458.19 879.03
  C 452.20 886.44 451.11 895.14 451.24 904.46
  Z"
/>
<path fill="#006e44" d="
  M 908.66 917.80
  Q 904.72 922.93 900.18 926.42
  C 894.94 930.44 887.33 929.87 887.31 921.56
  C 887.29 912.99 891.62 908.49 897.99 903.40
  Q 898.43 903.05 898.15 902.56
  Q 894.50 896.25 894.26 890.30
  C 893.81 879.36 905.72 877.88 911.69 884.87
  C 918.87 893.28 916.50 904.92 911.31 913.85
  Q 911.08 914.25 911.38 914.60
  L 914.89 918.65
  Q 915.46 919.31 914.77 919.84
  L 913.58 920.74
  Q 912.99 921.18 912.48 920.65
  L 909.70 917.74
  Q 909.15 917.17 908.66 917.80
  Z
  M 906.19 901.00
  Q 906.33 902.82 904.55 903.55
  A 1.11 1.11 0.0 0 0 904.05 905.19
  L 906.54 908.95
  A 0.45 0.44 39.7 0 0 907.32 908.88
  C 910.02 902.45 911.92 891.80 907.45 885.74
  C 905.18 882.66 900.10 882.85 899.50 887.03
  Q 898.54 893.76 901.76 900.45
  Q 902.02 901.01 902.53 900.66
  Q 903.93 899.71 905.55 900.20
  Q 906.15 900.38 906.19 901.00
  Z
  M 905.21 912.76
  L 901.25 907.56
  Q 900.89 907.08 900.48 907.52
  Q 894.01 914.47 892.07 923.73
  Q 891.96 924.23 892.19 924.69
  C 895.30 931.03 904.22 916.39 905.32 913.55
  Q 905.49 913.12 905.21 912.76
  Z"
/>
<path fill="#006e44" d="
  M 622.82 925.26
  C 626.15 923.12 627.94 920.13 630.82 917.68
  Q 631.33 917.24 631.71 917.80
  L 632.64 919.17
  Q 632.98 919.66 632.65 920.15
  C 629.96 924.28 618.54 934.79 616.56 924.38
  C 615.83 920.49 621.21 909.46 623.04 905.63
  A 0.63 0.63 0.0 0 0 622.21 904.78
  Q 620.34 905.60 619.58 903.67
  Q 619.38 903.15 619.81 902.80
  Q 621.61 901.34 624.00 901.80
  Q 624.63 901.93 624.88 901.33
  L 627.40 895.35
  Q 627.64 894.80 628.19 894.58
  L 632.91 892.71
  A 1.38 1.38 0.0 0 1 634.70 894.51
  L 632.08 901.07
  Q 631.81 901.75 632.54 901.75
  L 633.74 901.75
  Q 634.19 901.75 634.42 902.13
  C 636.17 904.92 632.27 905.09 630.78 904.99
  Q 630.15 904.95 629.90 905.53
  L 621.85 924.44
  A 0.67 0.66 -4.7 0 0 622.82 925.26
  Z"
/>
<path fill="#006e44" d="
  M 503.68 922.92
  C 509.30 921.54 516.47 917.02 518.10 910.97
  Q 518.25 910.43 518.02 909.92
  Q 515.98 905.44 518.09 900.92
  Q 518.32 900.44 518.79 900.19
  C 525.41 896.73 524.08 908.62 522.60 911.85
  Q 522.36 912.36 522.65 912.85
  L 523.86 914.90
  Q 524.13 915.37 523.84 915.84
  L 523.13 916.96
  Q 522.80 917.48 522.27 917.17
  L 520.80 916.31
  Q 520.32 916.02 519.94 916.44
  Q 510.96 926.25 497.72 928.80
  Q 496.96 928.94 496.74 928.20
  L 495.67 924.70
  Q 495.40 923.80 496.34 923.77
  L 497.55 923.72
  Q 498.01 923.71 498.28 923.33
  Q 504.30 914.71 505.06 904.21
  A 0.51 0.51 0.0 0 0 504.24 903.77
  L 498.82 908.00
  Q 498.39 908.34 497.89 908.10
  Q 496.96 907.66 496.94 906.27
  A 1.19 1.17 -27.5 0 1 497.18 905.53
  Q 500.90 900.65 507.14 900.46
  Q 507.77 900.44 508.20 900.91
  C 514.51 907.85 508.27 916.67 503.21 922.11
  A 0.49 0.49 0.0 0 0 503.68 922.92
  Z"
/>
<path fill="#006e44" d="
  M 797.77 922.85
  Q 807.18 920.73 811.83 912.44
  C 812.87 910.60 811.76 909.44 811.43 907.74
  C 809.43 897.35 819.72 896.83 817.97 908.31
  C 817.61 910.68 815.62 912.42 818.20 914.91
  Q 818.73 915.43 818.19 915.94
  L 816.99 917.05
  Q 816.44 917.56 815.91 917.03
  L 815.08 916.20
  Q 814.67 915.79 814.28 916.22
  Q 805.38 926.02 792.30 928.75
  Q 790.99 929.02 790.66 927.73
  L 789.89 924.67
  Q 789.66 923.75 790.61 923.75
  L 791.55 923.75
  Q 792.09 923.75 792.41 923.30
  Q 798.31 914.97 799.15 904.76
  A 0.83 0.82 -17.5 0 0 797.80 904.06
  L 793.43 907.67
  Q 793.03 908.00 792.50 908.00
  L 791.55 908.00
  Q 791.01 908.00 790.93 908.53
  C 789.72 915.94 783.73 928.37 775.05 928.95
  C 765.32 929.61 766.33 917.60 769.25 912.23
  C 773.20 904.97 779.07 900.00 788.04 900.76
  Q 788.55 900.80 788.96 901.12
  Q 790.85 902.63 791.13 905.02
  Q 791.21 905.68 791.64 905.16
  C 794.40 901.82 802.21 897.09 804.41 903.95
  C 806.79 911.38 801.28 916.79 797.48 922.42
  Q 797.08 923.01 797.77 922.85
  Z
  M 783.93 904.41
  A 0.10 0.09 71.0 0 0 783.79 904.34
  Q 772.76 910.57 773.19 923.48
  Q 773.26 925.40 775.00 925.31
  C 778.62 925.13 783.23 917.41 784.31 914.47
  C 785.51 911.19 784.49 907.96 783.93 904.41
  Z"
/>
<path fill="#006e44" d="
  M 466.13 925.81
  C 470.15 925.04 474.42 919.78 477.21 916.90
  A 0.69 0.68 -53.8 0 1 478.02 916.77
  C 482.84 919.28 468.34 931.54 462.25 929.57
  C 449.43 925.41 468.30 893.11 479.39 901.87
  C 486.62 907.57 470.28 917.37 466.42 919.06
  Q 465.91 919.28 465.70 919.78
  Q 464.57 922.46 465.31 925.29
  Q 465.47 925.94 466.13 925.81
  Z
  M 467.46 914.69
  C 471.07 912.63 474.17 910.23 476.73 906.48
  A 1.32 1.32 0.0 0 0 475.86 904.44
  C 471.97 903.79 468.16 911.40 467.09 914.38
  A 0.26 0.26 0.0 0 0 467.46 914.69
  Z"
/>
<path fill="#006e44" d="
  M 533.07 925.82
  C 537.08 925.17 541.51 919.66 544.31 916.81
  Q 544.84 916.26 545.29 916.88
  L 546.17 918.10
  Q 546.51 918.56 546.20 919.04
  C 543.26 923.60 536.18 930.60 530.25 929.83
  C 520.13 928.52 527.03 913.99 529.97 909.24
  Q 535.13 900.91 543.95 900.64
  Q 545.39 900.59 546.75 902.06
  C 552.61 908.39 537.65 917.30 533.16 919.26
  Q 532.74 919.44 532.61 919.88
  Q 531.80 922.52 532.26 925.24
  Q 532.38 925.93 533.07 925.82
  Z
  M 544.43 905.86
  L 541.89 903.53
  A 0.14 0.14 0.0 0 0 541.69 903.54
  L 540.62 904.71
  A 11.71 1.86 -47.5 0 0 534.08 914.60
  L 534.08 914.60
  A 11.71 1.86 -47.5 0 0 543.36 907.23
  L 544.44 906.06
  A 0.14 0.14 0.0 0 0 544.43 905.86
  Z"
/>
<path fill="#006e44" d="
  M 580.08 912.79
  C 576.64 917.11 568.63 929.19 562.21 929.19
  Q 558.69 929.19 558.09 924.91
  C 556.53 913.76 572.58 898.36 583.55 901.15
  C 585.90 901.75 587.76 901.42 590.06 901.85
  Q 590.59 901.95 590.36 902.45
  C 589.81 903.65 584.63 914.37 584.81 914.58
  Q 585.06 914.86 585.28 914.56
  L 586.72 912.61
  Q 587.12 912.08 587.68 912.42
  C 591.09 914.49 583.31 920.26 582.15 923.05
  C 579.64 929.05 570.16 955.39 560.14 950.36
  C 551.71 946.14 569.17 929.75 572.70 926.66
  C 576.37 923.45 578.58 917.46 580.46 913.02
  Q 581.11 911.48 580.08 912.79
  Z
  M 563.97 925.83
  C 570.56 920.08 576.87 912.59 581.94 905.19
  A 0.64 0.64 0.0 0 0 581.31 904.20
  C 571.99 905.75 565.12 916.83 562.87 925.15
  A 0.68 0.67 -13.1 0 0 563.97 925.83
  Z
  M 561.64 946.74
  L 563.59 947.92
  A 0.44 0.44 0.0 0 0 564.19 947.77
  L 564.66 947.00
  A 16.50 1.41 -58.9 0 0 571.97 932.14
  L 571.68 931.96
  A 16.50 1.41 -58.9 0 0 561.95 945.36
  L 561.49 946.14
  A 0.44 0.44 0.0 0 0 561.64 946.74
  Z"
/>
<path fill="#006e44" d="
  M 591.09 921.15
  C 590.78 909.99 600.99 899.41 612.53 900.84
  Q 613.10 900.91 613.42 901.38
  C 619.45 910.30 605.69 934.39 594.06 927.73
  C 592.27 926.71 591.15 923.33 591.09 921.15
  Z
  M 608.78 910.93
  C 608.73 909.65 608.27 905.84 607.86 904.74
  Q 607.70 904.31 607.30 904.54
  Q 596.44 911.00 597.21 923.79
  A 1.78 1.78 0.0 0 0 600.04 925.12
  C 604.00 922.22 608.98 916.18 608.78 910.93
  Z"
/>
<path fill="#006e44" d="
  M 665.54 910.98
  C 662.63 915.69 653.06 930.04 647.96 929.21
  C 638.25 927.63 650.54 908.66 652.64 904.95
  A 0.56 0.56 0.0 0 0 651.74 904.29
  L 644.50 912.00
  Q 644.15 912.37 643.68 912.18
  C 638.15 909.95 651.03 901.50 652.61 900.75
  Q 653.09 900.53 653.60 900.64
  C 664.06 902.95 652.09 920.47 649.12 925.07
  A 0.57 0.57 0.0 0 0 649.88 925.88
  C 657.40 921.66 665.45 908.80 669.30 901.21
  Q 669.54 900.75 670.06 900.75
  L 675.49 900.75
  Q 676.20 900.75 676.00 901.43
  C 675.63 902.70 672.15 912.79 672.27 913.02
  Q 672.54 913.57 672.85 913.04
  Q 673.33 912.24 674.29 912.23
  Q 675.04 912.21 675.15 912.96
  L 675.32 914.22
  Q 675.39 914.72 675.03 915.07
  L 670.05 919.99
  Q 669.70 920.34 669.56 920.82
  C 666.61 931.03 660.33 949.94 648.66 952.65
  C 645.01 953.50 641.89 951.67 641.99 947.74
  C 642.22 939.12 653.33 930.59 659.23 925.49
  C 662.12 922.99 664.02 916.19 666.06 911.28
  Q 666.15 911.06 666.04 910.94
  Q 665.75 910.63 665.54 910.98
  Z
  M 657.89 931.03
  C 652.94 935.26 645.89 942.40 646.22 948.94
  Q 646.26 949.59 646.91 949.50
  C 652.70 948.71 656.99 936.00 658.45 931.40
  Q 658.81 930.25 657.89 931.03
  Z"
/>
<path fill="#006e44" d="
  M 695.09 900.71
  C 705.88 901.70 692.23 935.18 678.72 927.85
  Q 676.34 926.56 675.56 923.66
  C 672.66 912.85 684.01 899.70 695.09 900.71
  Z
  M 691.90 904.73
  Q 691.83 904.24 691.40 904.49
  Q 680.54 910.94 681.20 923.79
  A 1.76 1.76 0.0 0 0 683.98 925.14
  Q 690.03 920.85 692.45 913.84
  C 693.41 911.07 692.33 907.84 691.90 904.73
  Z"
/>
<path fill="#006e44" d="
  M 706.92 925.47
  Q 717.81 915.02 725.65 902.12
  Q 725.88 901.75 726.31 901.75
  L 731.98 901.75
  Q 732.68 901.75 732.37 902.38
  L 721.44 924.73
  A 0.51 0.51 0.0 0 0 722.18 925.37
  Q 725.85 922.83 728.72 918.99
  Q 729.30 918.22 730.29 918.61
  A 1.88 1.88 0.0 0 1 731.14 921.42
  C 726.88 927.60 712.43 935.46 717.98 918.52
  Q 718.60 916.64 717.40 918.21
  C 715.09 921.24 708.04 929.50 703.90 928.80
  C 696.07 927.49 707.84 909.03 709.85 905.18
  A 0.52 0.52 0.0 0 0 709.00 904.59
  L 702.58 911.76
  Q 702.31 912.06 702.01 911.79
  C 698.35 908.46 709.68 897.97 713.28 901.73
  C 718.31 906.99 709.18 920.15 706.56 925.19
  Q 705.91 926.44 706.92 925.47
  Z"
/>
<path fill="#006e44" d="
  M 759.66 904.38
  Q 751.19 912.75 750.06 924.73
  A 0.88 0.88 0.0 0 0 751.28 925.62
  C 756.17 923.57 760.24 919.16 764.03 915.56
  Q 764.50 915.12 764.86 915.66
  L 765.73 916.95
  Q 766.07 917.44 765.73 917.94
  C 762.23 923.01 747.00 936.16 744.35 923.66
  C 742.84 916.59 748.70 907.46 754.33 903.36
  C 757.23 901.25 763.86 899.09 766.65 902.40
  C 768.61 904.73 767.15 910.31 763.25 909.76
  C 760.00 909.30 761.28 906.68 760.65 904.63
  Q 760.36 903.68 759.66 904.38
  Z"
/>
<path fill="#006e44" d="
  M 828.01 925.69
  C 831.65 925.74 836.55 920.00 839.22 917.02
  Q 839.58 916.62 840.07 916.83
  C 841.46 917.43 841.60 918.77 840.73 919.97
  C 837.76 924.09 831.18 930.42 825.68 929.86
  C 812.98 928.56 824.83 908.69 828.89 904.63
  C 831.75 901.75 840.45 897.87 842.83 903.48
  C 845.51 909.83 832.56 917.22 828.00 919.49
  Q 827.53 919.72 827.49 920.25
  L 827.19 924.80
  Q 827.13 925.68 828.01 925.69
  Z
  M 829.44 913.75
  Q 828.94 914.90 830.06 914.34
  C 832.72 912.99 839.28 908.59 838.97 904.82
  Q 838.93 904.27 838.38 904.25
  C 834.21 904.07 831.03 910.13 829.44 913.75
  Z"
/>
<path fill="#006e44" d="
  M 851.87 904.95
  C 850.59 906.09 847.84 911.17 846.31 911.23
  A 1.21 1.21 0.0 0 1 845.14 909.59
  C 846.66 905.67 849.82 900.65 854.34 900.76
  Q 854.86 900.77 855.27 901.10
  Q 857.06 902.57 857.24 904.92
  Q 857.32 905.94 857.85 905.07
  C 862.65 897.25 869.40 901.68 863.57 908.87
  Q 863.11 909.44 862.55 908.97
  L 860.80 907.53
  A 0.58 0.58 0.0 0 0 859.96 907.64
  Q 854.35 915.65 850.27 924.53
  A 0.69 0.69 0.0 0 0 851.21 925.44
  Q 856.32 922.88 860.45 918.93
  Q 860.88 918.52 861.45 918.73
  L 862.62 919.17
  Q 863.24 919.40 863.02 920.03
  C 861.30 924.91 844.82 934.55 845.23 923.52
  C 845.43 918.25 850.09 910.35 852.59 905.51
  A 0.46 0.46 0.0 0 0 851.87 904.95
  Z"
/>
<path fill="#006e44" d="
  M 872.23 925.67
  C 875.59 925.73 880.86 919.67 883.17 917.12
  A 1.03 1.02 36.0 0 1 884.46 916.92
  C 885.54 917.54 885.45 918.90 884.78 919.88
  C 881.85 924.15 874.70 930.92 868.99 929.71
  C 859.30 927.66 866.56 913.26 869.71 908.48
  Q 874.06 901.88 880.76 900.88
  C 884.13 900.37 887.76 902.00 887.18 905.92
  C 886.43 910.96 878.67 916.03 874.23 918.27
  Q 869.98 920.41 871.55 925.17
  Q 871.71 925.66 872.23 925.67
  Z
  M 882.11 904.22
  C 878.15 904.38 874.29 910.90 873.34 914.22
  Q 873.17 914.83 873.74 914.55
  Q 879.69 911.57 883.16 906.04
  A 1.19 1.18 -75.2 0 0 882.11 904.22
  Z"
/>
</svg>
